<?xml version="1.0" standalone="no"?><!DOCTYPE svg PUBLIC "-//W3C//DTD SVG 1.1//EN" "http://www.w3.org/Graphics/SVG/1.1/DTD/svg11.dtd"><svg t="1525876832739" class="icon" style="" viewBox="0 0 1024 1024" version="1.1" xmlns="http://www.w3.org/2000/svg" p-id="2588" xmlns:xlink="http://www.w3.org/1999/xlink" width="200" height="200"><defs><style type="text/css"></style></defs><path d="M960 838.4l-224 0 0 0L371.2 838.4l0 0L320 838.4l0 0L307.2 838.4l-128 128c-6.4 6.4-19.2 12.8-32 12.8l0 0 0 0 0 0c-12.8 0-25.6-6.4-32-12.8l0 0-6.4-6.4 0 0 0-6.4 0 0 0-6.4c0 0 0-6.4 0-12.8l0 0L108.8 832 102.4 832l0 0L44.8 832C19.2 832 0 812.8 0 787.2L0 96c0-25.6 19.2-51.2 44.8-51.2l928 0C998.4 44.8 1024 64 1024 96l0 691.2C1011.2 819.2 992 838.4 960 838.4zM256 358.4c-51.2 0-96 44.8-96 96S204.8 550.4 256 550.4s96-44.8 96-96S313.6 358.4 256 358.4zM499.2 358.4C448 358.4 403.2 403.2 403.2 454.4S448 550.4 499.2 550.4s96-44.8 96-96S550.4 358.4 499.2 358.4zM736 358.4c-51.2 0-96 44.8-96 96s44.8 96 96 96S832 499.2 832 454.4 793.6 358.4 736 358.4z" p-id="2589" fill="#696A52"></path></svg>