<?xml version="1.0" standalone="no"?><!DOCTYPE svg PUBLIC "-//W3C//DTD SVG 1.1//EN" "http://www.w3.org/Graphics/SVG/1.1/DTD/svg11.dtd"><svg t="1525963418552" class="icon" style="" viewBox="0 0 1024 1024" version="1.1" xmlns="http://www.w3.org/2000/svg" p-id="11464" xmlns:xlink="http://www.w3.org/1999/xlink" width="200" height="200"><defs><style type="text/css"></style></defs><path d="M896 128C896 57.3 838.7 0 768 0S640 57.3 640 128c0 58.2 38.8 107.3 92 122.9v127.5L511.7 598.6 291.5 378.4V251c53.4-15.4 92.5-64.6 92.5-123C384 57.3 326.7 0 256 0S128 57.3 128 128c0 58 38.6 107 91.5 122.7v156.9l-0.3 0.3L476 664.7v108.4c-53.2 15.6-92 64.7-92 122.9 0 70.7 57.3 128 128 128s128-57.3 128-128c0-58.2-38.8-107.3-92-122.9V664.2l256.3-256.3-0.3-0.3V250.9c53.2-15.6 92-64.7 92-122.9z m-696 0c0-30.9 25.1-56 56-56s56 25.1 56 56-25.1 56-56 56-56-25.1-56-56z m368 768c0 30.9-25.1 56-56 56s-56-25.1-56-56 25.1-56 56-56 56 25.1 56 56z m200-712c-30.9 0-56-25.1-56-56s25.1-56 56-56 56 25.1 56 56-25.1 56-56 56z" p-id="11465" fill="#696A52"></path></svg>